<svg width="163" height="135" viewBox="0 0 163 135" fill="none" xmlns="http://www.w3.org/2000/svg">
<path d="M15.0863 36.8497C15.0863 34.256 17.1889 32.1533 19.7827 32.1533H42.3254C44.9191 32.1533 47.0218 34.256 47.0218 36.8497V96.0908C47.0218 97.4476 46.4349 98.7381 45.4124 99.63L22.8697 119.292C19.8316 121.942 15.0863 119.784 15.0863 115.753V36.8497Z" fill="#AB74D1"/>
<path d="M88.9777 47.881C91.1289 49.1592 91.9001 51.8996 90.7312 54.1121L80.4366 73.5994C79.1407 76.0525 76.012 76.8535 73.6966 75.325L17.1953 38.0259C15.8786 37.1566 15.0863 35.6843 15.0863 34.1065L15.0863 12.2283C15.0863 8.58676 19.0511 6.33069 22.1817 8.19087L88.9777 47.881Z" fill="#AB74D1"/>
<path d="M74.3699 42.5023C72.9783 43.3565 72.1301 44.8721 72.1301 46.505L72.1302 71.6527C72.1302 75.4072 76.3176 77.6438 79.4381 75.5561L130.624 41.3104C131.68 40.604 132.405 39.5001 132.633 38.2505L137.221 13.1162C137.951 9.12016 133.606 6.14531 130.144 8.27014L74.3699 42.5023Z" fill="#AB74D1"/>
<path d="M84.7797 83.2431C82.1312 81.3436 82.1754 77.3898 84.8658 75.5501L102.389 63.5676C103.998 62.4669 106.121 62.4754 107.722 63.5891L140.268 86.2317C141.414 87.0293 142.146 88.2956 142.265 89.687L144.564 116.585C144.906 120.58 140.406 123.138 137.148 120.801L84.7797 83.2431Z" fill="#B30493"/>
<path d="M24.5566 131.685V121.41H26.5565V126.294L30.875 121.396H33.0778L29.136 125.96L33.3241 131.685H31.0634L27.8608 127.25L26.5565 128.612V131.685H24.5566ZM33.7494 128.844V124.091H35.6913V128.424C35.6913 129.004 35.7975 129.443 36.0101 129.743C36.2226 130.033 36.5366 130.178 36.952 130.178C37.2032 130.178 37.4496 130.129 37.6911 130.033C37.9423 129.926 38.1693 129.772 38.3722 129.569C38.5848 129.366 38.7635 129.11 38.9084 128.801V124.091H40.8503V129.511C40.8503 129.714 40.8841 129.859 40.9518 129.946C41.029 130.033 41.1498 130.086 41.3141 130.105V131.685C41.1208 131.714 40.9566 131.733 40.8213 131.743C40.6957 131.762 40.5798 131.772 40.4735 131.772C40.1257 131.772 39.8407 131.694 39.6185 131.54C39.406 131.376 39.2804 131.153 39.2417 130.873L39.1983 130.265C38.8601 130.777 38.4254 131.168 37.894 131.438C37.3626 131.699 36.7781 131.83 36.1405 131.83C35.358 131.83 34.7638 131.578 34.358 131.076C33.9523 130.564 33.7494 129.82 33.7494 128.844ZM49.8376 131.685H47.8957V127.424C47.8957 126.815 47.7894 126.371 47.5768 126.091C47.3643 125.811 47.0696 125.671 46.6929 125.671C46.432 125.671 46.1663 125.738 45.8958 125.874C45.635 126.009 45.3983 126.197 45.1857 126.439C44.9732 126.671 44.8186 126.941 44.722 127.25V131.685H42.7801V124.091H44.5336V125.497C44.7268 125.168 44.9732 124.893 45.2727 124.671C45.5722 124.439 45.9151 124.265 46.3016 124.149C46.6977 124.023 47.1131 123.961 47.5479 123.961C48.0213 123.961 48.4077 124.048 48.7072 124.221C49.0164 124.386 49.2482 124.613 49.4028 124.903C49.567 125.183 49.6781 125.502 49.7361 125.859C49.8037 126.216 49.8376 126.579 49.8376 126.946V131.685ZM51.0623 127.888C51.0623 127.154 51.2073 126.492 51.4971 125.902C51.7869 125.304 52.1879 124.83 52.6999 124.482C53.2119 124.135 53.7964 123.961 54.4534 123.961C55.0137 123.961 55.5161 124.101 55.9605 124.381C56.4146 124.651 56.7672 124.999 57.0184 125.424V121.106H58.9603V129.511C58.9603 129.714 58.9941 129.859 59.0618 129.946C59.1294 130.033 59.2453 130.086 59.4096 130.105V131.685C59.0714 131.752 58.7961 131.786 58.5835 131.786C58.2357 131.786 57.9459 131.699 57.714 131.525C57.4918 131.351 57.3662 131.124 57.3372 130.844L57.3083 130.366C57.0281 130.839 56.6465 131.202 56.1634 131.453C55.69 131.704 55.1925 131.83 54.6708 131.83C54.1491 131.83 53.666 131.728 53.2216 131.525C52.7868 131.322 52.4052 131.042 52.0768 130.685C51.7579 130.327 51.5067 129.912 51.3232 129.438C51.1493 128.955 51.0623 128.439 51.0623 127.888ZM57.0184 128.902V127.091C56.9218 126.811 56.7672 126.559 56.5547 126.337C56.3422 126.115 56.1055 125.941 55.8446 125.816C55.5838 125.68 55.3229 125.613 55.062 125.613C54.7626 125.613 54.492 125.675 54.2505 125.801C54.009 125.927 53.7964 126.096 53.6129 126.308C53.439 126.521 53.3037 126.767 53.2071 127.047C53.1202 127.328 53.0767 127.622 53.0767 127.931C53.0767 128.24 53.125 128.535 53.2216 128.815C53.3279 129.086 53.4776 129.323 53.6708 129.525C53.8641 129.728 54.0863 129.888 54.3375 130.004C54.5983 130.12 54.8785 130.178 55.178 130.178C55.3615 130.178 55.5451 130.149 55.7287 130.091C55.9219 130.023 56.1006 129.936 56.2649 129.83C56.4388 129.714 56.5885 129.579 56.7141 129.424C56.8494 129.26 56.9508 129.086 57.0184 128.902ZM60.3447 129.438C60.3447 128.946 60.48 128.516 60.7505 128.149C61.0307 127.772 61.4171 127.482 61.9098 127.279C62.4026 127.076 62.9677 126.975 63.6054 126.975C63.9242 126.975 64.2478 126.999 64.5763 127.047C64.9048 127.096 65.1898 127.173 65.4313 127.279V126.873C65.4313 126.39 65.2864 126.018 64.9966 125.758C64.7164 125.497 64.2961 125.366 63.7358 125.366C63.3204 125.366 62.9243 125.439 62.5475 125.584C62.1707 125.729 61.7746 125.941 61.3592 126.221L60.736 124.946C61.2384 124.618 61.7504 124.371 62.2721 124.207C62.8035 124.043 63.359 123.961 63.9387 123.961C65.0207 123.961 65.8612 124.231 66.4602 124.772C67.0689 125.313 67.3732 126.086 67.3732 127.091V129.511C67.3732 129.714 67.407 129.859 67.4747 129.946C67.5519 130.033 67.6727 130.086 67.837 130.105V131.685C67.6631 131.714 67.5036 131.738 67.3587 131.757C67.2235 131.776 67.1075 131.786 67.0109 131.786C66.6245 131.786 66.3298 131.699 66.1269 131.525C65.9337 131.351 65.8129 131.139 65.7646 130.888L65.7212 130.496C65.3927 130.921 64.9821 131.25 64.4894 131.482C63.9966 131.714 63.4943 131.83 62.9822 131.83C62.4798 131.83 62.0258 131.728 61.62 131.525C61.2239 131.313 60.9099 131.028 60.678 130.67C60.4558 130.303 60.3447 129.893 60.3447 129.438ZM65.069 129.83C65.1753 129.714 65.2623 129.598 65.3299 129.482C65.3975 129.366 65.4313 129.26 65.4313 129.163V128.395C65.1995 128.298 64.9483 128.226 64.6778 128.178C64.4072 128.12 64.1512 128.091 63.9097 128.091C63.4073 128.091 62.9919 128.202 62.6634 128.424C62.3446 128.637 62.1852 128.922 62.1852 129.279C62.1852 129.472 62.2383 129.656 62.3446 129.83C62.4509 130.004 62.6054 130.144 62.8083 130.25C63.0112 130.356 63.2527 130.409 63.5329 130.409C63.8227 130.409 64.1078 130.356 64.3879 130.25C64.6681 130.134 64.8951 129.994 65.069 129.83ZM69.1879 131.685V124.091H71.1297V131.685H69.1879ZM69.1879 123.033V121.106H71.1297V123.033H69.1879ZM84.9421 131.685V124.932L82.3046 129.96H81.1887L78.5512 124.932V131.685H76.5513V121.396H78.6961L81.7394 127.25L84.8116 121.396H86.9419V131.685H84.9421ZM88.8292 128.844V124.091H90.7711V128.424C90.7711 129.004 90.8774 129.443 91.0899 129.743C91.3025 130.033 91.6165 130.178 92.0319 130.178C92.2831 130.178 92.5294 130.129 92.771 130.033C93.0222 129.926 93.2492 129.772 93.4521 129.569C93.6646 129.366 93.8434 129.11 93.9883 128.801V124.091H95.9302V129.511C95.9302 129.714 95.964 129.859 96.0316 129.946C96.1089 130.033 96.2297 130.086 96.3939 130.105V131.685C96.2007 131.714 96.0364 131.733 95.9012 131.743C95.7756 131.762 95.6597 131.772 95.5534 131.772C95.2056 131.772 94.9206 131.694 94.6984 131.54C94.4858 131.376 94.3602 131.153 94.3216 130.873L94.2781 130.265C93.94 130.777 93.5052 131.168 92.9739 131.438C92.4425 131.699 91.858 131.83 91.2204 131.83C90.4378 131.83 89.8436 131.578 89.4379 131.076C89.0321 130.564 88.8292 129.82 88.8292 128.844ZM97.3527 130.496L101.541 125.453H97.5266V124.091H103.628V125.279L99.4685 130.322H103.7V131.685H97.3527V130.496ZM112.064 131.685H110.122V127.424C110.122 126.835 110.006 126.395 109.775 126.105C109.552 125.816 109.243 125.671 108.847 125.671C108.615 125.671 108.369 125.738 108.108 125.874C107.847 126.009 107.61 126.197 107.398 126.439C107.195 126.671 107.045 126.941 106.949 127.25V131.685H105.007V121.106H106.949V125.497C107.229 125.014 107.61 124.637 108.093 124.366C108.577 124.096 109.103 123.961 109.673 123.961C110.166 123.961 110.567 124.048 110.876 124.221C111.185 124.386 111.427 124.613 111.6 124.903C111.774 125.183 111.895 125.502 111.963 125.859C112.03 126.207 112.064 126.569 112.064 126.946V131.685ZM117.26 131.83C116.641 131.83 116.086 131.728 115.593 131.525C115.1 131.313 114.68 131.023 114.332 130.656C113.994 130.289 113.733 129.868 113.55 129.395C113.366 128.922 113.274 128.424 113.274 127.902C113.274 127.371 113.366 126.869 113.55 126.395C113.733 125.922 113.994 125.502 114.332 125.134C114.68 124.767 115.1 124.482 115.593 124.279C116.086 124.067 116.641 123.961 117.26 123.961C117.878 123.961 118.429 124.067 118.912 124.279C119.404 124.482 119.825 124.767 120.173 125.134C120.52 125.502 120.781 125.922 120.955 126.395C121.139 126.869 121.23 127.371 121.23 127.902C121.23 128.424 121.139 128.922 120.955 129.395C120.781 129.868 120.52 130.289 120.173 130.656C119.834 131.023 119.419 131.313 118.926 131.525C118.434 131.728 117.878 131.83 117.26 131.83ZM115.274 127.902C115.274 128.347 115.361 128.743 115.535 129.091C115.709 129.429 115.946 129.694 116.245 129.888C116.545 130.081 116.883 130.178 117.26 130.178C117.627 130.178 117.96 130.081 118.26 129.888C118.559 129.685 118.796 129.414 118.97 129.076C119.153 128.728 119.245 128.332 119.245 127.888C119.245 127.453 119.153 127.062 118.97 126.714C118.796 126.366 118.559 126.096 118.26 125.902C117.96 125.709 117.627 125.613 117.26 125.613C116.883 125.613 116.545 125.714 116.245 125.917C115.946 126.11 115.709 126.381 115.535 126.729C115.361 127.067 115.274 127.458 115.274 127.902ZM129.599 131.685H127.657V127.424C127.657 126.815 127.55 126.371 127.338 126.091C127.125 125.811 126.831 125.671 126.454 125.671C126.193 125.671 125.927 125.738 125.657 125.874C125.396 126.009 125.159 126.197 124.947 126.439C124.734 126.671 124.58 126.941 124.483 127.25V131.685H122.541V124.091H124.295V125.497C124.488 125.168 124.734 124.893 125.034 124.671C125.333 124.439 125.676 124.265 126.063 124.149C126.459 124.023 126.874 123.961 127.309 123.961C127.782 123.961 128.169 124.048 128.468 124.221C128.777 124.386 129.009 124.613 129.164 124.903C129.328 125.183 129.439 125.502 129.497 125.859C129.565 126.216 129.599 126.579 129.599 126.946V131.685ZM130.765 129.438C130.765 128.946 130.901 128.516 131.171 128.149C131.451 127.772 131.838 127.482 132.331 127.279C132.823 127.076 133.388 126.975 134.026 126.975C134.345 126.975 134.669 126.999 134.997 127.047C135.325 127.096 135.611 127.173 135.852 127.279V126.873C135.852 126.39 135.707 126.018 135.417 125.758C135.137 125.497 134.717 125.366 134.157 125.366C133.741 125.366 133.345 125.439 132.968 125.584C132.591 125.729 132.195 125.941 131.78 126.221L131.157 124.946C131.659 124.618 132.171 124.371 132.693 124.207C133.224 124.043 133.78 123.961 134.359 123.961C135.441 123.961 136.282 124.231 136.881 124.772C137.49 125.313 137.794 126.086 137.794 127.091V129.511C137.794 129.714 137.828 129.859 137.895 129.946C137.973 130.033 138.093 130.086 138.258 130.105V131.685C138.084 131.714 137.924 131.738 137.779 131.757C137.644 131.776 137.528 131.786 137.432 131.786C137.045 131.786 136.751 131.699 136.548 131.525C136.354 131.351 136.234 131.139 136.185 130.888L136.142 130.496C135.813 130.921 135.403 131.25 134.91 131.482C134.417 131.714 133.915 131.83 133.403 131.83C132.901 131.83 132.446 131.728 132.041 131.525C131.645 131.313 131.331 131.028 131.099 130.67C130.877 130.303 130.765 129.893 130.765 129.438ZM135.49 129.83C135.596 129.714 135.683 129.598 135.751 129.482C135.818 129.366 135.852 129.26 135.852 129.163V128.395C135.62 128.298 135.369 128.226 135.098 128.178C134.828 128.12 134.572 128.091 134.33 128.091C133.828 128.091 133.413 128.202 133.084 128.424C132.765 128.637 132.606 128.922 132.606 129.279C132.606 129.472 132.659 129.656 132.765 129.83C132.872 130.004 133.026 130.144 133.229 130.25C133.432 130.356 133.673 130.409 133.954 130.409C134.243 130.409 134.528 130.356 134.809 130.25C135.089 130.134 135.316 129.994 135.49 129.83Z" fill="white"/>
</svg>
