<svg width="69" height="58" viewBox="0 0 69 58" fill="none" xmlns="http://www.w3.org/2000/svg">
<path d="M6.3844 16.0508C6.3844 14.9532 7.27421 14.0634 8.37186 14.0634H17.9116C19.0093 14.0634 19.8991 14.9532 19.8991 16.0508V44.5415C19.8991 45.238 19.5344 45.8838 18.9379 46.2435L9.39807 51.9954C8.07346 52.7941 6.3844 51.8401 6.3844 50.2934V16.0508Z" fill="#7C48AA"/>
<path d="M37.6543 20.7192C38.5647 21.2601 38.891 22.4198 38.3964 23.3561L34.0398 31.6029C33.4914 32.641 32.1674 32.98 31.1876 32.3332L7.27688 16.5486C6.71965 16.1808 6.38437 15.5577 6.38437 14.89L6.38437 5.6314C6.38437 4.09035 8.06225 3.13561 9.38706 3.92281L37.6543 20.7192Z" fill="#7C48AA"/>
<path d="M27.7671 20.4608C26.9069 20.9847 26.5747 22.0693 26.9938 22.9852L30.8521 31.4169C31.3616 32.5303 32.747 32.9226 33.7647 32.2416L55.5628 17.6546C56.0095 17.3557 56.3161 16.8886 56.4127 16.3598L58.3581 5.70322C58.6662 4.01531 56.8345 2.75637 55.3691 3.64891L27.7671 20.4608Z" fill="#7C48AA"/>
<path d="M37.3598 36.2796C36.2359 35.477 36.2529 33.8011 37.3929 33.0216L44.747 27.9927C45.4557 27.508 46.3955 27.5333 47.0771 28.0552L59.258 37.3819C59.6897 37.7124 59.9672 38.2054 60.0257 38.7459L61.1583 49.2059C61.3431 50.912 59.4241 52.0345 58.0275 51.0373L37.3598 36.2796Z" fill="#F700C9"/>
<path d="M10.4906 57V52.6519H11.1775V54.8903L13.2258 52.6458H13.9863L12.2691 54.5714L14.0844 57H13.3055L11.8337 55.0069L11.1775 55.6876V57H10.4906ZM14.3148 55.7551V53.7926H14.9894V55.6201C14.9894 55.9063 15.0406 56.123 15.1428 56.2702C15.2491 56.4133 15.4024 56.4849 15.6027 56.4849C15.7295 56.4849 15.8521 56.4583 15.9707 56.4051C16.0933 56.352 16.2037 56.2743 16.3019 56.1721C16.4041 56.0658 16.4858 55.939 16.5472 55.7919V53.7926H17.2218V56.2395C17.2218 56.3172 17.2361 56.3724 17.2647 56.4051C17.2933 56.4378 17.3403 56.4562 17.4057 56.4603V57C17.3362 57.0123 17.279 57.0204 17.234 57.0245C17.1891 57.0286 17.1461 57.0307 17.1052 57.0307C16.9826 57.0307 16.8804 56.998 16.7986 56.9325C16.7168 56.863 16.6698 56.7751 16.6575 56.6688L16.6453 56.3499C16.5022 56.583 16.3162 56.7608 16.0872 56.8835C15.8583 57.002 15.6068 57.0613 15.3329 57.0613C14.9976 57.0613 14.7441 56.9509 14.5724 56.7302C14.4007 56.5094 14.3148 56.1843 14.3148 55.7551ZM20.9589 57H20.2843V55.2031C20.2843 54.9047 20.2352 54.6859 20.1371 54.5469C20.0431 54.4079 19.902 54.3384 19.7139 54.3384C19.5831 54.3384 19.4523 54.3711 19.3214 54.4365C19.1947 54.5019 19.0802 54.5919 18.978 54.7064C18.8758 54.8168 18.8022 54.9455 18.7572 55.0927V57H18.0826V53.7926H18.6959V54.4365C18.7777 54.2934 18.884 54.1708 19.0148 54.0686C19.1497 53.9623 19.301 53.8805 19.4686 53.8233C19.6363 53.766 19.8141 53.7374 20.0022 53.7374C20.1943 53.7374 20.3517 53.7721 20.4744 53.8416C20.6011 53.9112 20.6993 54.0072 20.7688 54.1299C20.8424 54.2485 20.8914 54.3875 20.916 54.5469C20.9446 54.7023 20.9589 54.8679 20.9589 55.0437V57ZM21.5395 55.3994C21.5395 55.0927 21.6009 54.8147 21.7235 54.5653C21.8503 54.3118 22.022 54.1115 22.2387 53.9643C22.4554 53.813 22.7047 53.7374 22.9869 53.7374C23.2322 53.7374 23.4529 53.8008 23.6492 53.9275C23.8495 54.0542 24.0049 54.2117 24.1153 54.3997V52.5231H24.7899V56.2395C24.7899 56.3172 24.8042 56.3724 24.8328 56.4051C24.8614 56.4378 24.9084 56.4562 24.9739 56.4603V57C24.8471 57.0204 24.749 57.0307 24.6795 57.0307C24.5527 57.0307 24.4444 56.9939 24.3544 56.9203C24.2686 56.8467 24.2236 56.7588 24.2195 56.6566L24.2134 56.4174C24.0907 56.6218 23.9252 56.7813 23.7166 56.8957C23.5081 57.0061 23.2914 57.0613 23.0666 57.0613C22.8458 57.0613 22.6414 57.0184 22.4533 56.9325C22.2693 56.8467 22.1078 56.7261 21.9688 56.5707C21.8339 56.4153 21.7276 56.2375 21.6499 56.0372C21.5763 55.8368 21.5395 55.6242 21.5395 55.3994ZM24.1153 55.847V55.0069C24.0703 54.876 23.9967 54.7595 23.8945 54.6573C23.7964 54.551 23.6839 54.4672 23.5572 54.4059C23.4345 54.3445 23.3119 54.3139 23.1892 54.3139C23.0461 54.3139 22.9153 54.3445 22.7967 54.4059C22.6823 54.4672 22.5821 54.549 22.4962 54.6512C22.4145 54.7534 22.3511 54.8699 22.3061 55.0007C22.2611 55.1316 22.2387 55.2685 22.2387 55.4116C22.2387 55.5588 22.2632 55.6978 22.3123 55.8287C22.3613 55.9554 22.4308 56.0699 22.5208 56.1721C22.6148 56.2702 22.7211 56.3479 22.8397 56.4051C22.9623 56.4583 23.0952 56.4849 23.2383 56.4849C23.3282 56.4849 23.4182 56.4685 23.5081 56.4358C23.6022 56.4031 23.6901 56.3581 23.7718 56.3009C23.8577 56.2436 23.9292 56.1762 23.9865 56.0985C24.0478 56.0208 24.0907 55.937 24.1153 55.847ZM25.4137 56.0617C25.4137 55.8573 25.4709 55.6794 25.5854 55.5281C25.704 55.3728 25.8655 55.2542 26.0699 55.1724C26.2743 55.0866 26.5114 55.0437 26.7813 55.0437C26.9244 55.0437 27.0695 55.0539 27.2167 55.0743C27.368 55.0948 27.5009 55.1275 27.6153 55.1724V54.9701C27.6153 54.7452 27.5479 54.5694 27.413 54.4427C27.278 54.3159 27.0838 54.2525 26.8303 54.2525C26.6505 54.2525 26.4808 54.2852 26.3213 54.3507C26.1619 54.412 25.9922 54.4999 25.8123 54.6144L25.5854 54.1605C25.798 54.0175 26.0106 53.9112 26.2232 53.8416C26.4399 53.7721 26.6668 53.7374 26.9039 53.7374C27.3332 53.7374 27.6705 53.8519 27.9158 54.0808C28.1652 54.3057 28.2899 54.6266 28.2899 55.0437V56.2395C28.2899 56.3172 28.3022 56.3724 28.3267 56.4051C28.3553 56.4378 28.4024 56.4562 28.4678 56.4603V57C28.4065 57.0123 28.3513 57.0204 28.3022 57.0245C28.2531 57.0286 28.2123 57.0307 28.1795 57.0307C28.0364 57.0307 27.9281 56.9959 27.8545 56.9264C27.7809 56.8569 27.738 56.7751 27.7257 56.6811L27.7073 56.4971C27.5683 56.677 27.3905 56.816 27.1738 56.9141C26.9571 57.0123 26.7384 57.0613 26.5176 57.0613C26.305 57.0613 26.1149 57.0184 25.9472 56.9325C25.7796 56.8426 25.6488 56.722 25.5547 56.5707C25.4607 56.4194 25.4137 56.2498 25.4137 56.0617ZM27.4559 56.2579C27.5049 56.2048 27.5438 56.1516 27.5724 56.0985C27.601 56.0453 27.6153 55.9983 27.6153 55.9574V55.5895C27.5009 55.5445 27.3802 55.5118 27.2535 55.4914C27.1268 55.4668 27.0021 55.4546 26.8794 55.4546C26.6341 55.4546 26.4338 55.5036 26.2784 55.6017C26.1271 55.6999 26.0515 55.8348 26.0515 56.0065C26.0515 56.1005 26.076 56.1905 26.1251 56.2763C26.1782 56.3622 26.2518 56.4317 26.3459 56.4849C26.444 56.538 26.5646 56.5646 26.7077 56.5646C26.8549 56.5646 26.9959 56.536 27.1308 56.4787C27.2658 56.4215 27.3741 56.3479 27.4559 56.2579ZM29.1084 57V53.7926H29.783V57H29.1084ZM29.1084 53.2652V52.5231H29.783V53.2652H29.1084ZM35.8559 57V53.8968L34.5742 56.2518H34.1694L32.8816 53.8968V57H32.1947V52.6458H32.9306L34.3718 55.3074L35.813 52.6458H36.5489V57H35.8559ZM37.4144 55.7551V53.7926H38.089V55.6201C38.089 55.9063 38.1401 56.123 38.2423 56.2702C38.3486 56.4133 38.5019 56.4849 38.7022 56.4849C38.829 56.4849 38.9516 56.4583 39.0702 56.4051C39.1929 56.352 39.3032 56.2743 39.4014 56.1721C39.5036 56.0658 39.5854 55.939 39.6467 55.7919V53.7926H40.3213V56.2395C40.3213 56.3172 40.3356 56.3724 40.3642 56.4051C40.3928 56.4378 40.4398 56.4562 40.5053 56.4603V57C40.4358 57.0123 40.3785 57.0204 40.3335 57.0245C40.2886 57.0286 40.2456 57.0307 40.2048 57.0307C40.0821 57.0307 39.9799 56.998 39.8981 56.9325C39.8164 56.863 39.7693 56.7751 39.7571 56.6688L39.7448 56.3499C39.6017 56.583 39.4157 56.7608 39.1867 56.8835C38.9578 57.002 38.7063 57.0613 38.4324 57.0613C38.0971 57.0613 37.8437 56.9509 37.6719 56.7302C37.5002 56.5094 37.4144 56.1843 37.4144 55.7551ZM40.9491 56.5768L42.8503 54.2709H41.0166V53.7926H43.5862V54.2157L41.6973 56.5216H43.6046V57H40.9491V56.5768ZM47.0828 57H46.4082V55.2031C46.4082 54.9128 46.3551 54.6961 46.2488 54.553C46.1425 54.4099 45.9933 54.3384 45.8011 54.3384C45.6825 54.3384 45.5599 54.3711 45.4331 54.4365C45.3064 54.5019 45.194 54.5919 45.0958 54.7064C44.9977 54.8168 44.9262 54.9455 44.8812 55.0927V57H44.2066V52.5231H44.8812V54.4365C45.0038 54.2198 45.1715 54.0502 45.3841 53.9275C45.5967 53.8008 45.8256 53.7374 46.0709 53.7374C46.2713 53.7374 46.4369 53.7721 46.5677 53.8416C46.6985 53.9112 46.8007 54.0072 46.8743 54.1299C46.952 54.2485 47.0052 54.3875 47.0338 54.5469C47.0665 54.7023 47.0828 54.8679 47.0828 55.0437V57ZM49.3071 57.0613C49.0536 57.0613 48.8267 57.0184 48.6263 56.9325C48.426 56.8426 48.2522 56.7199 48.105 56.5646C47.9619 56.4092 47.8516 56.2334 47.7739 56.0372C47.6962 55.8368 47.6574 55.6242 47.6574 55.3994C47.6574 55.1745 47.6962 54.9619 47.7739 54.7616C47.8516 54.5612 47.9619 54.3854 48.105 54.2341C48.2522 54.0788 48.426 53.9582 48.6263 53.8723C48.8307 53.7824 49.0577 53.7374 49.3071 53.7374C49.5565 53.7374 49.7813 53.7824 49.9817 53.8723C50.1861 53.9582 50.3598 54.0788 50.5029 54.2341C50.6501 54.3854 50.7626 54.5612 50.8402 54.7616C50.9179 54.9619 50.9568 55.1745 50.9568 55.3994C50.9568 55.6242 50.9179 55.8368 50.8402 56.0372C50.7626 56.2334 50.6501 56.4092 50.5029 56.5646C50.3598 56.7199 50.1861 56.8426 49.9817 56.9325C49.7813 57.0184 49.5565 57.0613 49.3071 57.0613ZM48.3504 55.4055C48.3504 55.6099 48.3933 55.7939 48.4791 55.9574C48.565 56.121 48.6795 56.2498 48.8226 56.3438C48.9657 56.4378 49.1272 56.4849 49.3071 56.4849C49.4829 56.4849 49.6423 56.4378 49.7854 56.3438C49.9326 56.2457 50.0491 56.1148 50.135 55.9513C50.2208 55.7837 50.2638 55.5997 50.2638 55.3994C50.2638 55.1949 50.2208 55.011 50.135 54.8474C50.0491 54.6839 49.9326 54.5551 49.7854 54.4611C49.6423 54.3629 49.4829 54.3139 49.3071 54.3139C49.1272 54.3139 48.9657 54.3629 48.8226 54.4611C48.6795 54.5592 48.565 54.69 48.4791 54.8535C48.3933 55.013 48.3504 55.197 48.3504 55.4055ZM54.4313 57H53.7567V55.2031C53.7567 54.9047 53.7077 54.6859 53.6095 54.5469C53.5155 54.4079 53.3745 54.3384 53.1864 54.3384C53.0556 54.3384 52.9247 54.3711 52.7939 54.4365C52.6671 54.5019 52.5527 54.5919 52.4505 54.7064C52.3482 54.8168 52.2747 54.9455 52.2297 55.0927V57H51.5551V53.7926H52.1684V54.4365C52.2501 54.2934 52.3564 54.1708 52.4873 54.0686C52.6222 53.9623 52.7734 53.8805 52.9411 53.8233C53.1087 53.766 53.2866 53.7374 53.4746 53.7374C53.6668 53.7374 53.8242 53.7721 53.9468 53.8416C54.0736 53.9112 54.1717 54.0072 54.2412 54.1299C54.3148 54.2485 54.3639 54.3875 54.3884 54.5469C54.417 54.7023 54.4313 54.8679 54.4313 55.0437V57ZM54.9813 56.0617C54.9813 55.8573 55.0385 55.6794 55.153 55.5281C55.2716 55.3728 55.4331 55.2542 55.6375 55.1724C55.8419 55.0866 56.0791 55.0437 56.3489 55.0437C56.492 55.0437 56.6371 55.0539 56.7843 55.0743C56.9356 55.0948 57.0685 55.1275 57.183 55.1724V54.9701C57.183 54.7452 57.1155 54.5694 56.9806 54.4427C56.8457 54.3159 56.6515 54.2525 56.398 54.2525C56.2181 54.2525 56.0484 54.2852 55.889 54.3507C55.7295 54.412 55.5598 54.4999 55.3799 54.6144L55.153 54.1605C55.3656 54.0175 55.5782 53.9112 55.7908 53.8416C56.0075 53.7721 56.2344 53.7374 56.4716 53.7374C56.9009 53.7374 57.2382 53.8519 57.4835 54.0808C57.7329 54.3057 57.8576 54.6266 57.8576 55.0437V56.2395C57.8576 56.3172 57.8698 56.3724 57.8944 56.4051C57.923 56.4378 57.97 56.4562 58.0354 56.4603V57C57.9741 57.0123 57.9189 57.0204 57.8698 57.0245C57.8208 57.0286 57.7799 57.0307 57.7472 57.0307C57.6041 57.0307 57.4957 56.9959 57.4221 56.9264C57.3485 56.8569 57.3056 56.7751 57.2933 56.6811L57.2749 56.4971C57.1359 56.677 56.9581 56.816 56.7414 56.9141C56.5247 57.0123 56.306 57.0613 56.0852 57.0613C55.8726 57.0613 55.6825 57.0184 55.5149 56.9325C55.3472 56.8426 55.2164 56.722 55.1224 56.5707C55.0283 56.4194 54.9813 56.2498 54.9813 56.0617ZM57.0235 56.2579C57.0726 56.2048 57.1114 56.1516 57.14 56.0985C57.1686 56.0453 57.183 55.9983 57.183 55.9574V55.5895C57.0685 55.5445 56.9479 55.5118 56.8211 55.4914C56.6944 55.4668 56.5697 55.4546 56.447 55.4546C56.2017 55.4546 56.0014 55.5036 55.846 55.6017C55.6947 55.6999 55.6191 55.8348 55.6191 56.0065C55.6191 56.1005 55.6436 56.1905 55.6927 56.2763C55.7459 56.3622 55.8194 56.4317 55.9135 56.4849C56.0116 56.538 56.1322 56.5646 56.2753 56.5646C56.4225 56.5646 56.5636 56.536 56.6985 56.4787C56.8334 56.4215 56.9417 56.3479 57.0235 56.2579Z" fill="white"/>
</svg>
